<mxfile host="Electron" agent="Mozilla/5.0 (X11; Linux x86_64) AppleWebKit/537.36 (KHTML, like Gecko) draw.io/24.7.17 Chrome/128.0.6613.36 Electron/32.0.1 Safari/537.36" version="24.7.17">
  <diagram name="Page-1" id="XeuYLsbx8ItZKWZaqUgF">
    <mxGraphModel dx="585" dy="344" grid="1" gridSize="10" guides="1" tooltips="1" connect="1" arrows="1" fold="1" page="1" pageScale="1" pageWidth="1169" pageHeight="827" math="1" shadow="0">
      <root>
        <mxCell id="0" />
        <mxCell id="1" parent="0" />
        <mxCell id="Js-GnHBMEyZSAZk5Fswp-99" value="" style="rounded=0;whiteSpace=wrap;html=1;dashed=1;" vertex="1" parent="1">
          <mxGeometry x="110" y="450" width="510" height="90" as="geometry" />
        </mxCell>
        <mxCell id="Js-GnHBMEyZSAZk5Fswp-44" value="" style="rounded=0;whiteSpace=wrap;html=1;" vertex="1" parent="1">
          <mxGeometry x="110" y="270" width="130" height="90" as="geometry" />
        </mxCell>
        <mxCell id="Js-GnHBMEyZSAZk5Fswp-10" value="`" style="shape=image;verticalLabelPosition=bottom;labelBackgroundColor=default;verticalAlign=top;aspect=fixed;imageAspect=0;image=data:image/svg+xml,PHN2ZyB4bWxuczp4bGluaz0iaHR0cDovL3d3dy53My5vcmcvMTk5OS94bGluayIgeG1sbnM9Imh0dHA6Ly93d3cudzMub3JnLzIwMDAvc3ZnIiB4bWw6c3BhY2U9InByZXNlcnZlIiB2ZXJzaW9uPSIxLjEiIHZpZXdCb3g9IjAgMCA3NiA3NiIgaGVpZ2h0PSI4MDBweCIgd2lkdGg9IjgwMHB4Ij4mI3hhOwk8cGF0aCBkPSJNIDQ1LjQ0MDMsNDAuOTQ1NUwgNTcuNjk2NCw0NS44NjQ5TCA1NC42OTY0LDUxLjA2MTFMIDQ0LjMxNDgsNDIuOTEyMUMgNDMuODM0Myw0My41MjkgNDMuMjY1NCw0NC4wNzM2IDQyLjYyNyw0NC41MjY5TCA0Ni42MDQ4LDUwLjQzMDNMIDQ0LjQzOTcsNTEuNjgwM0wgNDEuMzE1Niw0NS4yODI3QyA0MC42MzM5LDQ1LjU5MzYgMzkuOTAxLDQ1LjgxMTUgMzkuMTMzLDQ1LjkyMDRMIDQxLjAxMDQsNTkuMDYyNUwgMzUuMDEwNCw1OS4wNjI1TCAzNi44ODc0LDQ1LjkyMzNDIDM2LjA5NDksNDUuODEzIDM1LjMzOTQsNDUuNTg2NiAzNC42Mzg5LDQ1LjI2MThMIDMxLjUxMTIsNTEuNjY2OEwgMjkuMzQ2MSw1MC40MTY4TCAzMy4zMzM3LDQ0LjQ5ODlDIDMyLjcxNjgsNDQuMDU1MSAzMi4xNjU2LDQzLjUyNTcgMzEuNjk3Niw0Mi45MjhMIDIxLjIzODMsNTEuMTM4TCAxOC4yMzgzLDQ1Ljk0MTlMIDMwLjU3NzIsNDAuOTg5MkMgMzAuMjk0Nyw0MC4yODg1IDMwLjEwODYsMzkuNTM4NyAzMC4wMzUzLDM4Ljc1NkwgMjMuMDA3NCwzOS4yNDQxTCAyMy4wMDc0LDM2Ljc0NDFMIDMwLjAzNjQsMzcuMjMyMkMgMzAuMTEwOCwzNi40NTAyIDMwLjI5NzksMzUuNzAxIDMwLjU4MTEsMzUuMDAxTCAxOC4zMjg5LDMwLjA4MzFMIDIxLjMyODksMjQuODg3TCAzMS43MiwzMy4wNDM1QyAzMi4xODc3LDMyLjQ1MTcgMzIuNzM3MywzMS45Mjc2IDMzLjM1MTYsMzEuNDg4M0wgMjkuNDA1NiwyNS42MzIyTCAzMS41NzA3LDI0LjM4MjJMIDM0LjY2OCwzMC43MjQ4QyAzNS4zNTQ3LDMwLjQwOTggMzYuMDkzOCwzMC4xODkxIDM2Ljg2ODUsMzAuMDc5NEwgMzUsMTdMIDQxLDE3TCAzOS4xMzE1LDMwLjA3OTRDIDM5Ljg5NzIsMzAuMTg3OCA0MC42Mjc5LDMwLjQwNDYgNDEuMzA3OCwzMC43MTM3TCA0NC40MTc3LDI0LjM0NTRMIDQ2LjU4MjcsMjUuNTk1NEwgNDIuNjIzOCwzMS40NzA4QyA0My4yNDg2LDMxLjkxNDEgNDMuODA3LDMyLjQ0NDcgNDQuMjgxMiwzMy4wNDVMIDU0LjY5MDUsMjQuODc0MkwgNTcuNjkwNSwzMC4wNzAzTCA0NS40MTcxLDM0Ljk5NjdDIDQ1LjU0ODYsMzUuMzIxMSA0NS42NTk0LDM1LjY1NjEgNDUuNzQ4LDM2TCA3Mi45NDM4LDM2TCA3MywzOEwgNzIuOTQzOCw0MEwgNDUuNzQ4LDQwQyA0NS42NjQ3LDQwLjMyMzUgNDUuNTYxNyw0MC42MzkyIDQ1LjQ0MDMsNDAuOTQ1NSBaIiBzdHJva2UtbGluZWpvaW49InJvdW5kIiBzdHJva2Utd2lkdGg9IjAuMiIgZmlsbC1vcGFjaXR5PSIxIiBmaWxsPSIjMDAwMDAwIi8+JiN4YTs8L3N2Zz4=;" vertex="1" parent="1">
          <mxGeometry x="97" y="242" width="146" height="146" as="geometry" />
        </mxCell>
        <mxCell id="Js-GnHBMEyZSAZk5Fswp-40" value="" style="rounded=0;whiteSpace=wrap;html=1;" vertex="1" parent="1">
          <mxGeometry x="300" y="280" width="150" height="70" as="geometry" />
        </mxCell>
        <mxCell id="Js-GnHBMEyZSAZk5Fswp-2" value="$$\text{CW Laser Diode}$$" style="text;html=1;align=center;verticalAlign=middle;whiteSpace=wrap;rounded=0;" vertex="1" parent="1">
          <mxGeometry x="80" y="360" width="180" height="30" as="geometry" />
        </mxCell>
        <mxCell id="Js-GnHBMEyZSAZk5Fswp-11" value="" style="endArrow=none;html=1;rounded=0;" edge="1" parent="1">
          <mxGeometry width="50" height="50" relative="1" as="geometry">
            <mxPoint x="300" y="309.82" as="sourcePoint" />
            <mxPoint x="340" y="309.82" as="targetPoint" />
          </mxGeometry>
        </mxCell>
        <mxCell id="Js-GnHBMEyZSAZk5Fswp-12" value="" style="endArrow=none;html=1;rounded=0;" edge="1" parent="1">
          <mxGeometry width="50" height="50" relative="1" as="geometry">
            <mxPoint x="300" y="319.82" as="sourcePoint" />
            <mxPoint x="340" y="319.82" as="targetPoint" />
          </mxGeometry>
        </mxCell>
        <mxCell id="Js-GnHBMEyZSAZk5Fswp-20" value="" style="endArrow=none;html=1;rounded=0;" edge="1" parent="1">
          <mxGeometry width="50" height="50" relative="1" as="geometry">
            <mxPoint x="360" y="299.82" as="sourcePoint" />
            <mxPoint x="390" y="299.82" as="targetPoint" />
          </mxGeometry>
        </mxCell>
        <mxCell id="Js-GnHBMEyZSAZk5Fswp-21" value="" style="endArrow=none;html=1;rounded=0;" edge="1" parent="1">
          <mxGeometry width="50" height="50" relative="1" as="geometry">
            <mxPoint x="360" y="289.82" as="sourcePoint" />
            <mxPoint x="390" y="289.82" as="targetPoint" />
          </mxGeometry>
        </mxCell>
        <mxCell id="Js-GnHBMEyZSAZk5Fswp-22" value="" style="endArrow=none;html=1;rounded=0;" edge="1" parent="1">
          <mxGeometry width="50" height="50" relative="1" as="geometry">
            <mxPoint x="360" y="329.82" as="sourcePoint" />
            <mxPoint x="390" y="329.82" as="targetPoint" />
          </mxGeometry>
        </mxCell>
        <mxCell id="Js-GnHBMEyZSAZk5Fswp-23" value="" style="endArrow=none;html=1;rounded=0;" edge="1" parent="1">
          <mxGeometry width="50" height="50" relative="1" as="geometry">
            <mxPoint x="360" y="339.82" as="sourcePoint" />
            <mxPoint x="390" y="339.82" as="targetPoint" />
          </mxGeometry>
        </mxCell>
        <mxCell id="Js-GnHBMEyZSAZk5Fswp-38" value="" style="endArrow=none;html=1;rounded=0;" edge="1" parent="1">
          <mxGeometry width="50" height="50" relative="1" as="geometry">
            <mxPoint x="410" y="309.75000000000006" as="sourcePoint" />
            <mxPoint x="450" y="309.82" as="targetPoint" />
          </mxGeometry>
        </mxCell>
        <mxCell id="Js-GnHBMEyZSAZk5Fswp-39" value="" style="endArrow=none;html=1;rounded=0;" edge="1" parent="1">
          <mxGeometry width="50" height="50" relative="1" as="geometry">
            <mxPoint x="410" y="319.75000000000006" as="sourcePoint" />
            <mxPoint x="450" y="319.82" as="targetPoint" />
          </mxGeometry>
        </mxCell>
        <mxCell id="Js-GnHBMEyZSAZk5Fswp-33" value="" style="endArrow=none;html=1;rounded=0;" edge="1" parent="1">
          <mxGeometry width="50" height="50" relative="1" as="geometry">
            <mxPoint x="410" y="309.82" as="sourcePoint" />
            <mxPoint x="390" y="289.82" as="targetPoint" />
          </mxGeometry>
        </mxCell>
        <mxCell id="Js-GnHBMEyZSAZk5Fswp-34" value="" style="endArrow=none;html=1;rounded=0;" edge="1" parent="1">
          <mxGeometry width="50" height="50" relative="1" as="geometry">
            <mxPoint x="390" y="339.82" as="sourcePoint" />
            <mxPoint x="410" y="319.82" as="targetPoint" />
          </mxGeometry>
        </mxCell>
        <mxCell id="Js-GnHBMEyZSAZk5Fswp-35" value="" style="endArrow=none;html=1;rounded=0;" edge="1" parent="1">
          <mxGeometry width="50" height="50" relative="1" as="geometry">
            <mxPoint x="390" y="329.82" as="sourcePoint" />
            <mxPoint x="400" y="319.82" as="targetPoint" />
          </mxGeometry>
        </mxCell>
        <mxCell id="Js-GnHBMEyZSAZk5Fswp-36" value="" style="endArrow=none;html=1;rounded=0;" edge="1" parent="1">
          <mxGeometry width="50" height="50" relative="1" as="geometry">
            <mxPoint x="390" y="299.82" as="sourcePoint" />
            <mxPoint x="400" y="309.82" as="targetPoint" />
          </mxGeometry>
        </mxCell>
        <mxCell id="Js-GnHBMEyZSAZk5Fswp-37" value="" style="endArrow=none;html=1;rounded=0;" edge="1" parent="1">
          <mxGeometry width="50" height="50" relative="1" as="geometry">
            <mxPoint x="400" y="309.82" as="sourcePoint" />
            <mxPoint x="400" y="319.82" as="targetPoint" />
          </mxGeometry>
        </mxCell>
        <mxCell id="Js-GnHBMEyZSAZk5Fswp-13" value="" style="endArrow=none;html=1;rounded=0;" edge="1" parent="1">
          <mxGeometry width="50" height="50" relative="1" as="geometry">
            <mxPoint x="340" y="319.82" as="sourcePoint" />
            <mxPoint x="360" y="339.82" as="targetPoint" />
          </mxGeometry>
        </mxCell>
        <mxCell id="Js-GnHBMEyZSAZk5Fswp-15" value="" style="endArrow=none;html=1;rounded=0;" edge="1" parent="1">
          <mxGeometry width="50" height="50" relative="1" as="geometry">
            <mxPoint x="360" y="289.82" as="sourcePoint" />
            <mxPoint x="340" y="309.82" as="targetPoint" />
          </mxGeometry>
        </mxCell>
        <mxCell id="Js-GnHBMEyZSAZk5Fswp-17" value="" style="endArrow=none;html=1;rounded=0;" edge="1" parent="1">
          <mxGeometry width="50" height="50" relative="1" as="geometry">
            <mxPoint x="360" y="299.82" as="sourcePoint" />
            <mxPoint x="350" y="309.82" as="targetPoint" />
          </mxGeometry>
        </mxCell>
        <mxCell id="Js-GnHBMEyZSAZk5Fswp-18" value="" style="endArrow=none;html=1;rounded=0;" edge="1" parent="1">
          <mxGeometry width="50" height="50" relative="1" as="geometry">
            <mxPoint x="360" y="329.82" as="sourcePoint" />
            <mxPoint x="350" y="319.82" as="targetPoint" />
          </mxGeometry>
        </mxCell>
        <mxCell id="Js-GnHBMEyZSAZk5Fswp-19" value="" style="endArrow=none;html=1;rounded=0;" edge="1" parent="1">
          <mxGeometry width="50" height="50" relative="1" as="geometry">
            <mxPoint x="350" y="319.82" as="sourcePoint" />
            <mxPoint x="350" y="309.82" as="targetPoint" />
          </mxGeometry>
        </mxCell>
        <mxCell id="Js-GnHBMEyZSAZk5Fswp-41" value="$$\text{Intensity Modulator}$$" style="text;html=1;align=center;verticalAlign=middle;whiteSpace=wrap;rounded=0;" vertex="1" parent="1">
          <mxGeometry x="285" y="358" width="180" height="30" as="geometry" />
        </mxCell>
        <mxCell id="Js-GnHBMEyZSAZk5Fswp-43" value="" style="endArrow=none;html=1;rounded=0;entryX=0;entryY=0.5;entryDx=0;entryDy=0;exitX=0.842;exitY=0.5;exitDx=0;exitDy=0;exitPerimeter=0;" edge="1" parent="1" source="Js-GnHBMEyZSAZk5Fswp-10" target="Js-GnHBMEyZSAZk5Fswp-40">
          <mxGeometry width="50" height="50" relative="1" as="geometry">
            <mxPoint x="280" y="390" as="sourcePoint" />
            <mxPoint x="330" y="340" as="targetPoint" />
          </mxGeometry>
        </mxCell>
        <mxCell id="Js-GnHBMEyZSAZk5Fswp-4" value="" style="pointerEvents=1;verticalLabelPosition=bottom;shadow=0;dashed=0;align=center;html=1;verticalAlign=top;shape=mxgraph.electrical.waveforms.sine_wave;" vertex="1" parent="1">
          <mxGeometry x="450" y="280" width="60" height="66.18" as="geometry" />
        </mxCell>
        <mxCell id="Js-GnHBMEyZSAZk5Fswp-5" value="" style="pointerEvents=1;verticalLabelPosition=bottom;shadow=0;dashed=0;align=center;html=1;verticalAlign=top;shape=mxgraph.electrical.waveforms.sine_wave;flipV=1;" vertex="1" parent="1">
          <mxGeometry x="510" y="280" width="60" height="66.18" as="geometry" />
        </mxCell>
        <mxCell id="Js-GnHBMEyZSAZk5Fswp-6" value="" style="pointerEvents=1;verticalLabelPosition=bottom;shadow=0;dashed=0;align=center;html=1;verticalAlign=top;shape=mxgraph.electrical.waveforms.sine_wave;flipV=1;" vertex="1" parent="1">
          <mxGeometry x="570" y="280" width="60" height="66.18" as="geometry" />
        </mxCell>
        <mxCell id="Js-GnHBMEyZSAZk5Fswp-46" value="$$\ket{1}$$" style="text;html=1;align=center;verticalAlign=middle;whiteSpace=wrap;rounded=0;" vertex="1" parent="1">
          <mxGeometry x="467.5" y="260" width="25" height="30" as="geometry" />
        </mxCell>
        <mxCell id="Js-GnHBMEyZSAZk5Fswp-47" value="$$\ket{0}$$" style="text;html=1;align=center;verticalAlign=middle;whiteSpace=wrap;rounded=0;" vertex="1" parent="1">
          <mxGeometry x="527.5" y="260" width="25" height="30" as="geometry" />
        </mxCell>
        <mxCell id="Js-GnHBMEyZSAZk5Fswp-48" value="$$\ket{0}$$" style="text;html=1;align=center;verticalAlign=middle;whiteSpace=wrap;rounded=0;" vertex="1" parent="1">
          <mxGeometry x="587.5" y="260" width="25" height="30" as="geometry" />
        </mxCell>
        <mxCell id="Js-GnHBMEyZSAZk5Fswp-49" value="$$\ket{1}$$" style="text;html=1;align=center;verticalAlign=middle;whiteSpace=wrap;rounded=0;" vertex="1" parent="1">
          <mxGeometry x="647.5" y="260" width="25" height="30" as="geometry" />
        </mxCell>
        <mxCell id="Js-GnHBMEyZSAZk5Fswp-50" value="" style="pointerEvents=1;verticalLabelPosition=bottom;shadow=0;dashed=0;align=center;html=1;verticalAlign=top;shape=mxgraph.electrical.waveforms.sine_wave;" vertex="1" parent="1">
          <mxGeometry x="630" y="280" width="60" height="66.18" as="geometry" />
        </mxCell>
        <mxCell id="Js-GnHBMEyZSAZk5Fswp-51" value="" style="pointerEvents=1;verticalLabelPosition=bottom;shadow=0;dashed=0;align=center;html=1;verticalAlign=top;shape=mxgraph.electrical.waveforms.sine_wave;direction=west;flipV=1;" vertex="1" parent="1">
          <mxGeometry x="690" y="279.99999999999994" width="60" height="66.18" as="geometry" />
        </mxCell>
        <mxCell id="Js-GnHBMEyZSAZk5Fswp-52" value="$$\ket{d}$$" style="text;html=1;align=center;verticalAlign=middle;whiteSpace=wrap;rounded=0;" vertex="1" parent="1">
          <mxGeometry x="707.5" y="260" width="25" height="30" as="geometry" />
        </mxCell>
        <mxCell id="Js-GnHBMEyZSAZk5Fswp-54" value="" style="pointerEvents=1;verticalLabelPosition=bottom;shadow=0;dashed=0;align=center;html=1;verticalAlign=top;shape=mxgraph.electrical.waveforms.sine_wave;direction=west;flipV=0;" vertex="1" parent="1">
          <mxGeometry x="690" y="279.99999999999994" width="60" height="66.18" as="geometry" />
        </mxCell>
        <mxCell id="Js-GnHBMEyZSAZk5Fswp-56" value="" style="rounded=0;whiteSpace=wrap;html=1;strokeColor=none;" vertex="1" parent="1">
          <mxGeometry x="690" y="313.82" width="60" height="36.18" as="geometry" />
        </mxCell>
        <mxCell id="Js-GnHBMEyZSAZk5Fswp-57" value="" style="endArrow=none;dashed=1;html=1;rounded=0;entryX=0.993;entryY=-0.015;entryDx=0;entryDy=0;entryPerimeter=0;" edge="1" parent="1" target="Js-GnHBMEyZSAZk5Fswp-4">
          <mxGeometry width="50" height="50" relative="1" as="geometry">
            <mxPoint x="510" y="350" as="sourcePoint" />
            <mxPoint x="542.5" y="400" as="targetPoint" />
          </mxGeometry>
        </mxCell>
        <mxCell id="Js-GnHBMEyZSAZk5Fswp-58" value="" style="endArrow=none;dashed=1;html=1;rounded=0;entryX=0.993;entryY=-0.015;entryDx=0;entryDy=0;entryPerimeter=0;" edge="1" parent="1">
          <mxGeometry width="50" height="50" relative="1" as="geometry">
            <mxPoint x="570" y="350.5" as="sourcePoint" />
            <mxPoint x="570" y="279.5" as="targetPoint" />
          </mxGeometry>
        </mxCell>
        <mxCell id="Js-GnHBMEyZSAZk5Fswp-59" value="" style="endArrow=none;dashed=1;html=1;rounded=0;entryX=0.993;entryY=-0.015;entryDx=0;entryDy=0;entryPerimeter=0;" edge="1" parent="1">
          <mxGeometry width="50" height="50" relative="1" as="geometry">
            <mxPoint x="630" y="350" as="sourcePoint" />
            <mxPoint x="630" y="279" as="targetPoint" />
          </mxGeometry>
        </mxCell>
        <mxCell id="Js-GnHBMEyZSAZk5Fswp-60" value="" style="endArrow=none;dashed=1;html=1;rounded=0;entryX=0.993;entryY=-0.015;entryDx=0;entryDy=0;entryPerimeter=0;" edge="1" parent="1">
          <mxGeometry width="50" height="50" relative="1" as="geometry">
            <mxPoint x="690" y="350" as="sourcePoint" />
            <mxPoint x="690" y="279" as="targetPoint" />
          </mxGeometry>
        </mxCell>
        <mxCell id="Js-GnHBMEyZSAZk5Fswp-61" value="" style="endArrow=none;dashed=1;html=1;rounded=0;entryX=0.993;entryY=-0.015;entryDx=0;entryDy=0;entryPerimeter=0;" edge="1" parent="1">
          <mxGeometry width="50" height="50" relative="1" as="geometry">
            <mxPoint x="750" y="350" as="sourcePoint" />
            <mxPoint x="750" y="279" as="targetPoint" />
          </mxGeometry>
        </mxCell>
        <mxCell id="Js-GnHBMEyZSAZk5Fswp-62" value="" style="rounded=0;whiteSpace=wrap;html=1;rotation=45;" vertex="1" parent="1">
          <mxGeometry x="810" y="293.09" width="10" height="40" as="geometry" />
        </mxCell>
        <mxCell id="Js-GnHBMEyZSAZk5Fswp-63" value="" style="shape=or;whiteSpace=wrap;html=1;" vertex="1" parent="1">
          <mxGeometry x="980" y="296.90999999999997" width="30" height="36.18" as="geometry" />
        </mxCell>
        <mxCell id="Js-GnHBMEyZSAZk5Fswp-64" value="" style="shape=or;whiteSpace=wrap;html=1;" vertex="1" parent="1">
          <mxGeometry x="980" y="470" width="30" height="36.18" as="geometry" />
        </mxCell>
        <mxCell id="Js-GnHBMEyZSAZk5Fswp-65" value="" style="shape=or;whiteSpace=wrap;html=1;" vertex="1" parent="1">
          <mxGeometry x="980" y="377" width="30" height="36.18" as="geometry" />
        </mxCell>
        <mxCell id="Js-GnHBMEyZSAZk5Fswp-66" value="" style="endArrow=none;html=1;rounded=0;entryX=-0.03;entryY=0.601;entryDx=0;entryDy=0;entryPerimeter=0;" edge="1" parent="1" target="Js-GnHBMEyZSAZk5Fswp-62">
          <mxGeometry width="50" height="50" relative="1" as="geometry">
            <mxPoint x="750" y="312" as="sourcePoint" />
            <mxPoint x="870" y="330" as="targetPoint" />
          </mxGeometry>
        </mxCell>
        <mxCell id="Js-GnHBMEyZSAZk5Fswp-67" value="" style="endArrow=none;html=1;rounded=0;entryX=0;entryY=0.5;entryDx=0;entryDy=0;entryPerimeter=0;exitX=0.96;exitY=0.382;exitDx=0;exitDy=0;exitPerimeter=0;" edge="1" parent="1" source="Js-GnHBMEyZSAZk5Fswp-62" target="Js-GnHBMEyZSAZk5Fswp-63">
          <mxGeometry width="50" height="50" relative="1" as="geometry">
            <mxPoint x="820" y="380" as="sourcePoint" />
            <mxPoint x="870" y="330" as="targetPoint" />
          </mxGeometry>
        </mxCell>
        <mxCell id="Js-GnHBMEyZSAZk5Fswp-68" value="" style="endArrow=none;html=1;rounded=0;exitX=0;exitY=0.5;exitDx=0;exitDy=0;exitPerimeter=0;" edge="1" parent="1" source="Js-GnHBMEyZSAZk5Fswp-65">
          <mxGeometry width="50" height="50" relative="1" as="geometry">
            <mxPoint x="820" y="380" as="sourcePoint" />
            <mxPoint x="880" y="380" as="targetPoint" />
          </mxGeometry>
        </mxCell>
        <mxCell id="Js-GnHBMEyZSAZk5Fswp-69" value="" style="endArrow=none;html=1;rounded=0;exitX=0;exitY=0.5;exitDx=0;exitDy=0;exitPerimeter=0;" edge="1" parent="1" source="Js-GnHBMEyZSAZk5Fswp-64">
          <mxGeometry width="50" height="50" relative="1" as="geometry">
            <mxPoint x="930" y="378" as="sourcePoint" />
            <mxPoint x="880" y="380" as="targetPoint" />
          </mxGeometry>
        </mxCell>
        <mxCell id="Js-GnHBMEyZSAZk5Fswp-71" value="$$\text{Beam Splitter}$$" style="text;html=1;align=center;verticalAlign=middle;whiteSpace=wrap;rounded=0;" vertex="1" parent="1">
          <mxGeometry x="765" y="250.00000000000003" width="100" height="30" as="geometry" />
        </mxCell>
        <mxCell id="Js-GnHBMEyZSAZk5Fswp-77" value="$$D_{Receiver}$$" style="text;html=1;align=center;verticalAlign=middle;whiteSpace=wrap;rounded=0;" vertex="1" parent="1">
          <mxGeometry x="1020" y="280" width="22.5" height="30" as="geometry" />
        </mxCell>
        <mxCell id="Js-GnHBMEyZSAZk5Fswp-78" value="$$D_{M1}$$" style="text;html=1;align=center;verticalAlign=middle;whiteSpace=wrap;rounded=0;" vertex="1" parent="1">
          <mxGeometry x="1010" y="366.54" width="22.5" height="16.91" as="geometry" />
        </mxCell>
        <mxCell id="Js-GnHBMEyZSAZk5Fswp-79" value="$$D_{M2}$$" style="text;html=1;align=center;verticalAlign=middle;whiteSpace=wrap;rounded=0;" vertex="1" parent="1">
          <mxGeometry x="1006.25" y="450" width="30" height="30" as="geometry" />
        </mxCell>
        <mxCell id="Js-GnHBMEyZSAZk5Fswp-82" value="" style="pointerEvents=1;verticalLabelPosition=bottom;shadow=0;dashed=0;align=center;html=1;verticalAlign=top;shape=mxgraph.electrical.waveforms.sine_wave;" vertex="1" parent="1">
          <mxGeometry x="333" y="461.90999999999997" width="60" height="66.18" as="geometry" />
        </mxCell>
        <mxCell id="Js-GnHBMEyZSAZk5Fswp-83" value="$$\ket{1}$$" style="text;html=1;align=center;verticalAlign=middle;whiteSpace=wrap;rounded=0;" vertex="1" parent="1">
          <mxGeometry x="273" y="480" width="25" height="30" as="geometry" />
        </mxCell>
        <mxCell id="Js-GnHBMEyZSAZk5Fswp-84" value="" style="endArrow=none;html=1;rounded=0;" edge="1" parent="1">
          <mxGeometry width="50" height="50" relative="1" as="geometry">
            <mxPoint x="306" y="494.64" as="sourcePoint" />
            <mxPoint x="326" y="494.64" as="targetPoint" />
          </mxGeometry>
        </mxCell>
        <mxCell id="Js-GnHBMEyZSAZk5Fswp-85" value="$$\ket{0}$$" style="text;html=1;align=center;verticalAlign=middle;whiteSpace=wrap;rounded=0;" vertex="1" parent="1">
          <mxGeometry x="110" y="480" width="25" height="30" as="geometry" />
        </mxCell>
        <mxCell id="Js-GnHBMEyZSAZk5Fswp-86" value="" style="endArrow=none;html=1;rounded=0;" edge="1" parent="1">
          <mxGeometry width="50" height="50" relative="1" as="geometry">
            <mxPoint x="143" y="494.64" as="sourcePoint" />
            <mxPoint x="163" y="494.64" as="targetPoint" />
          </mxGeometry>
        </mxCell>
        <mxCell id="Js-GnHBMEyZSAZk5Fswp-87" value="" style="pointerEvents=1;verticalLabelPosition=bottom;shadow=0;dashed=0;align=center;html=1;verticalAlign=top;shape=mxgraph.electrical.waveforms.sine_wave;flipV=1;" vertex="1" parent="1">
          <mxGeometry x="173" y="461.90999999999997" width="60" height="66.18" as="geometry" />
        </mxCell>
        <mxCell id="Js-GnHBMEyZSAZk5Fswp-89" value="$$\ket{d}$$" style="text;html=1;align=center;verticalAlign=middle;whiteSpace=wrap;rounded=0;" vertex="1" parent="1">
          <mxGeometry x="443" y="480" width="25" height="30" as="geometry" />
        </mxCell>
        <mxCell id="Js-GnHBMEyZSAZk5Fswp-95" value="" style="group" vertex="1" connectable="0" parent="1">
          <mxGeometry x="506" y="460" width="60" height="80" as="geometry" />
        </mxCell>
        <mxCell id="Js-GnHBMEyZSAZk5Fswp-88" value="" style="pointerEvents=1;verticalLabelPosition=bottom;shadow=0;dashed=0;align=center;html=1;verticalAlign=top;shape=mxgraph.electrical.waveforms.sine_wave;direction=west;flipV=1;" vertex="1" parent="Js-GnHBMEyZSAZk5Fswp-95">
          <mxGeometry width="60" height="66.18" as="geometry" />
        </mxCell>
        <mxCell id="Js-GnHBMEyZSAZk5Fswp-90" value="" style="pointerEvents=1;verticalLabelPosition=bottom;shadow=0;dashed=0;align=center;html=1;verticalAlign=top;shape=mxgraph.electrical.waveforms.sine_wave;direction=west;flipV=0;" vertex="1" parent="Js-GnHBMEyZSAZk5Fswp-95">
          <mxGeometry width="60" height="66.18" as="geometry" />
        </mxCell>
        <mxCell id="Js-GnHBMEyZSAZk5Fswp-91" value="" style="rounded=0;whiteSpace=wrap;html=1;strokeColor=none;" vertex="1" parent="Js-GnHBMEyZSAZk5Fswp-95">
          <mxGeometry y="33.819999999999936" width="60" height="36.18" as="geometry" />
        </mxCell>
        <mxCell id="Js-GnHBMEyZSAZk5Fswp-100" value="$$\textit{decoy state}$$" style="text;html=1;align=center;verticalAlign=middle;whiteSpace=wrap;rounded=0;" vertex="1" parent="Js-GnHBMEyZSAZk5Fswp-95">
          <mxGeometry y="50" width="60" height="30" as="geometry" />
        </mxCell>
        <mxCell id="Js-GnHBMEyZSAZk5Fswp-96" value="" style="endArrow=none;html=1;rounded=0;" edge="1" parent="1">
          <mxGeometry width="50" height="50" relative="1" as="geometry">
            <mxPoint x="476" y="494.64" as="sourcePoint" />
            <mxPoint x="496" y="494.64" as="targetPoint" />
          </mxGeometry>
        </mxCell>
        <mxCell id="Js-GnHBMEyZSAZk5Fswp-98" value="$$\textbf{Key:}$$" style="text;html=1;align=center;verticalAlign=middle;whiteSpace=wrap;rounded=0;" vertex="1" parent="1">
          <mxGeometry x="120" y="413.5" width="30" height="30" as="geometry" />
        </mxCell>
        <mxCell id="Js-GnHBMEyZSAZk5Fswp-101" value="" style="rounded=0;whiteSpace=wrap;html=1;rotation=45;" vertex="1" parent="1">
          <mxGeometry x="870" y="358" width="10" height="40" as="geometry" />
        </mxCell>
        <mxCell id="Js-GnHBMEyZSAZk5Fswp-103" value="" style="endArrow=none;html=1;rounded=0;entryX=1;entryY=0.5;entryDx=0;entryDy=0;exitX=0;exitY=0.5;exitDx=0;exitDy=0;" edge="1" parent="1" source="Js-GnHBMEyZSAZk5Fswp-101" target="Js-GnHBMEyZSAZk5Fswp-62">
          <mxGeometry width="50" height="50" relative="1" as="geometry">
            <mxPoint x="830" y="480" as="sourcePoint" />
            <mxPoint x="880" y="430" as="targetPoint" />
          </mxGeometry>
        </mxCell>
        <mxCell id="Js-GnHBMEyZSAZk5Fswp-104" value="$$\text{Interferometer}$$" style="text;html=1;align=center;verticalAlign=middle;whiteSpace=wrap;rounded=0;" vertex="1" parent="1">
          <mxGeometry x="800" y="399" width="100" height="30" as="geometry" />
        </mxCell>
      </root>
    </mxGraphModel>
  </diagram>
</mxfile>
